<svg width="20" height="23" viewBox="0 0 20 23" fill="none" xmlns="http://www.w3.org/2000/svg">
<path d="M19.9224 9.68418L19.6415 9.50476L17.3795 8.04441C17.3376 8.01689 17.2887 8.00299 17.239 8.00453C17.1947 8.00415 17.1509 8.01539 17.112 8.03719C17.073 8.05898 17.04 8.09063 17.0162 8.12913C16.9797 8.19016 16.968 8.26344 16.9834 8.3333C16.9987 8.40317 17.0401 8.46406 17.0985 8.50294L18.5517 9.43C18.5591 9.43283 18.5655 9.43792 18.57 9.4446C18.5745 9.45129 18.5769 9.45924 18.5769 9.46737C18.5769 9.47551 18.5745 9.48346 18.57 9.49014C18.5655 9.49683 18.5591 9.50193 18.5517 9.50476H15.5727V0.124604C15.5728 0.0924023 15.5607 0.0614381 15.539 0.0382085C15.5174 0.0149789 15.4878 0.00128804 15.4565 0H0.121095C0.0889784 0 0.0581275 0.013122 0.0354178 0.0364897C0.0127082 0.0598574 0 0.0915566 0 0.124604V19.4382C0.00107168 19.4655 0.0105438 19.4919 0.0270807 19.5134C0.0436177 19.5349 0.066339 19.5504 0.0920036 19.5578L0.271221 19.5976L10.2494 22.015C10.2671 22.0195 10.2856 22.0198 10.3035 22.0159C10.3214 22.012 10.3382 22.004 10.3527 21.9925C10.3671 21.981 10.3788 21.9663 10.3869 21.9495C10.3951 21.9326 10.3994 21.9141 10.3996 21.8953V19.7223C10.3996 19.6901 10.4116 19.6591 10.4333 19.6359C10.455 19.6126 10.4846 19.5989 10.5158 19.5976H15.4565C15.4878 19.5964 15.5174 19.5827 15.539 19.5594C15.5607 19.5362 15.5728 19.5052 15.5727 19.473V10.068H18.5517C18.5577 10.0714 18.5628 10.0765 18.5663 10.0826C18.5698 10.0887 18.5717 10.0957 18.5717 10.1028C18.5717 10.11 18.5698 10.117 18.5663 10.1231C18.5628 10.1292 18.5577 10.1343 18.5517 10.1377L17.0985 11.0648C17.0611 11.0893 17.0304 11.1232 17.0092 11.1633C16.988 11.2034 16.9771 11.2484 16.9774 11.2941C16.9759 11.3452 16.9894 11.3955 17.0162 11.4386C17.054 11.4988 17.1132 11.5413 17.1811 11.5572C17.249 11.573 17.3201 11.5609 17.3795 11.5233L19.6415 10.068L19.9224 9.88854C19.9424 9.88052 19.9596 9.86647 19.9718 9.84824C19.9839 9.83001 19.9904 9.80845 19.9904 9.78637C19.9904 9.76428 19.9839 9.74271 19.9718 9.72448C19.9596 9.70624 19.9424 9.6922 19.9224 9.68418ZM9.75049 21.073C9.75106 21.0915 9.74747 21.11 9.7399 21.1269C9.73234 21.1437 9.72107 21.1586 9.70697 21.1702C9.69287 21.1818 9.67632 21.1898 9.65866 21.1937C9.641 21.1976 9.62269 21.1972 9.60521 21.1926L2.93046 19.5777L0.992941 19.1092C0.883332 19.0813 0.785444 19.0178 0.713856 18.9279C0.642267 18.8381 0.600847 18.7268 0.595776 18.6108V0.996828C0.59478 0.976288 0.59891 0.955832 0.607839 0.937432C0.616767 0.919032 0.63019 0.903309 0.646745 0.891785C0.6633 0.880262 0.682465 0.873327 0.702385 0.871647C0.722305 0.869966 0.742291 0.873593 0.760449 0.882188L9.68758 4.66018C9.70924 4.6699 9.72764 4.68594 9.74055 4.70631C9.75347 4.72668 9.76027 4.75048 9.76019 4.7748L9.75049 21.073ZM14.9285 18.8201C14.9286 18.8523 14.9164 18.8833 14.8948 18.9065C14.8731 18.9297 14.8436 18.9434 14.8123 18.9447H10.4868C10.4555 18.9434 10.4259 18.9297 10.4043 18.9065C10.3826 18.8833 10.3705 18.8523 10.3705 18.8201V4.33122C10.3702 4.30633 10.3627 4.28211 10.3489 4.26168C10.3351 4.24125 10.3156 4.22554 10.293 4.21658L2.05861 0.72768C2.04777 0.724197 2.03826 0.717245 2.03153 0.707831C2.0248 0.698417 2.02118 0.687042 2.02118 0.675357C2.02118 0.663671 2.0248 0.652282 2.03153 0.642867C2.03826 0.633453 2.04777 0.626501 2.05861 0.623018H14.7736C14.8048 0.624306 14.8344 0.637997 14.856 0.661226C14.8777 0.684456 14.8898 0.71542 14.8898 0.747621V9.49478H13.921C13.8867 9.49475 13.8527 9.50179 13.8211 9.51548C13.7895 9.52918 13.7609 9.54926 13.737 9.57453C13.712 9.59881 13.6921 9.62821 13.6788 9.66082C13.6654 9.69343 13.6589 9.72855 13.6595 9.76393C13.6594 9.83578 13.6868 9.90476 13.7357 9.95602C13.7847 10.0073 13.8512 10.0368 13.921 10.0381H14.8898L14.9285 18.8201Z" fill="white"/>
<path d="M5.52428 12.5747C5.36305 12.5155 5.18603 12.6009 5.12887 12.7655C5.07172 12.9301 5.15609 13.1116 5.31731 13.1708L7.89908 14.1199C8.06031 14.1792 8.23735 14.0938 8.2945 13.9292C8.35165 13.7646 8.26728 13.5831 8.10605 13.5238L5.52428 12.5747Z" fill="white"/>
</svg>
