<svg width="1625" height="1705" viewBox="0 0 1625 1705" fill="none" xmlns="http://www.w3.org/2000/svg">
<path d="M612.467 33C593.267 71.9334 589.667 78.0667 577.267 90.7334C565.4 102.867 554.467 110.467 543.133 114.467C535.4 117.267 531.8 117.667 514.333 117.667C486.333 117.667 466.6 120.2 429.933 128.467C420.067 130.733 411.8 132.2 411.4 131.8C411 131.4 411.4 125.533 412.2 118.867C413.133 112.2 413.533 106.467 413.4 106.333C413.133 106.2 406.867 110.333 399.267 115.8C383.133 127.267 370.867 133.667 365.133 133.667C357.933 133.533 349.8 129 347.667 123.667C342.6 111.8 350.867 99.1334 367 93.9334C371.8 92.4667 378.2 90.4667 381.4 89.6667C386.067 88.4667 387 87.6667 387 85C387 81.6667 386.867 81.6667 379.4 82.4667C355.8 84.7334 329 92.8667 302.2 105.533C286.733 113 228.2 145.667 224.6 149C223.267 150.2 224.333 157.8 230.333 187.667C239.267 232.867 239.667 234.2 249 252.067C262.333 277.667 281.8 302.067 303.8 320.6C310.067 325.8 315.267 329.8 315.533 329.533C315.8 329.267 311.933 322.467 307 314.467C288.467 284.867 275.933 256.867 271 233.8C268.2 220.733 266.333 204.333 267.533 204.333C268.067 204.333 271.267 205.8 274.733 207.533C281 210.733 281.133 210.867 282.6 219.533C283.4 224.467 285.933 232.467 288.333 237.267C292.2 245.667 302.333 260.333 304.2 260.333C304.6 260.333 304.867 255 304.6 248.467C304.2 237.267 305.933 225.667 308.067 225.667C308.6 225.667 310.067 227.933 311.267 230.733C317.533 244.067 338.467 277.4 339.8 275.933C340.067 275.667 339.533 269.133 338.6 261.267L336.867 247.133L340.067 243.933L343.267 240.733L353.267 244.467C371.8 251.267 389.533 254.467 431 258.333C458.6 260.867 459.533 261.133 465 265.8C471.4 271.4 474.2 280.733 473 292.067C470.333 319.8 457.533 353.667 439.533 381.4L432.2 392.6L425.933 388.867C415.267 382.733 408.733 377.933 405.133 373.533C401.667 369.533 401.4 369.4 399.667 371.8C394.733 378.333 395.533 392.867 401.533 406.2L405.667 415.267L400.6 414.333C389.267 412.333 371.8 399 362.733 385.8C360.467 382.6 360.467 382.6 356.733 385C354.733 386.333 346.067 394.467 337.533 402.867C320.6 419.667 309.533 435.133 302.867 451.133C294.333 472.067 281.933 513.533 275.533 543C273.933 550.467 277.933 542.733 286.2 522.733C299 491.667 308.2 474.733 329.4 443C339.933 427.267 351 410.2 353.933 405.267C357 400.333 359.533 396.467 359.667 396.6C359.933 396.867 361 402.6 362.2 409.4L364.333 421.8L360.333 429.667C353.933 442.467 355.4 446.867 368.2 452.867C373.4 455.267 376.733 455.667 390.333 455.667C405.267 455.667 407 455.4 415.933 451.533C431.133 444.867 442.867 436.2 464.6 415.4C486.6 394.6 497.933 385.4 506.333 381.533C509.267 380.333 517.667 378.467 525 377.667C532.2 376.733 540.467 375.133 543.133 374.067C552.067 370.6 558.867 356.6 557.133 345.133C555.8 337 551.4 331.933 540.6 326.733L531.667 322.467L537.533 319.933C545.267 316.6 552.6 315.667 556.2 317.533C560.733 319.933 562.867 324.467 565 335.667C566.2 341.4 567.267 346.467 567.667 346.733C567.933 347 577.133 340.2 587.933 331.4C618.333 307 631.4 300.067 647 300.067C663.933 299.933 673.933 305.533 679.8 318.333C683.533 326.2 684.067 337.8 681.133 347.4C677.667 358.867 661 379.533 639 399.8C603.8 432.067 598.867 436.733 599.533 437.267C601.133 439 650.333 412.867 677.667 395.8C706.867 377.667 727 356.733 736.467 335C739.267 328.733 739.667 325.533 739.667 312.867C739.667 298.2 739.667 298.067 734.067 286.733C724.6 267.8 714.6 258.867 695.4 252.2C678.067 246.2 663.8 244.067 623 241C597.667 239.133 580.733 237.133 579.4 235.933C578.867 235.267 599.267 231 623 226.867C632.2 225.267 644.467 222.467 650.333 220.733C677 212.333 727.133 190.2 747.667 177.8C752.867 174.6 766.067 165.267 777 157.133C788.067 148.867 803.933 136.867 812.467 130.6C825.933 120.6 848.333 99.2667 848.333 96.4667C848.333 95.9334 842.467 96.6 835.4 97.9334C822.867 100.467 821.133 100.467 789 98.4667C770.733 97.2667 742.333 95.9334 726.067 95.4C709.667 95 696.333 94.0667 696.333 93.5334C696.333 93 699 83 702.2 71.4C707.4 52.7334 710.067 40.6 712.867 24.3334L713.667 19.6667L705.667 27.6667C701.133 32.0667 693.8 39.9334 689.4 45.2667C684.867 50.6 676.467 58.3334 670.6 62.4667C659.933 70.0667 629.533 88.6 628.867 87.9334C628.6 87.6667 629.267 84.3334 630.333 80.3334C633.4 68.7334 635.4 46.0667 634.467 33C633.4 17.2667 630.867 0.333362 629.533 0.333362C628.867 0.333362 621.267 15 612.467 33Z" fill="#2F2514"/>
<path d="M841.267 117.133C838.333 118.067 832.333 122.333 827.933 126.6C809.933 143.267 785.667 160.6 764.467 172.067L754.6 177.4L759.8 179.667C796.333 195.267 822.733 201.667 856.333 202.6C883.133 203.533 895.933 201.667 926.067 193C968.733 180.733 1005.8 165.133 1030.2 149.133C1043.27 140.467 1045 138.6 1038.73 140.067C1036.33 140.6 1024.47 141 1012.33 140.867C987.8 140.867 979.267 139.533 937 130.2C906.467 123.4 858.733 115 851.267 115.133C848.6 115.133 844.067 116.067 841.267 117.133Z" fill="#2F2514"/>
<path d="M999 173.666C979.133 183.933 972.467 186.6 954.333 191.8C942.733 195.133 932.867 197.933 932.6 198.2C932.2 198.733 965.4 222.066 977 229.266C994.733 240.466 1013.13 247.666 1034.33 251.933C1055 256.066 1089.93 255.133 1128.33 249.666C1155.4 245.666 1163.27 245.133 1185.67 245.133L1211.67 245L1222.33 249.266C1239.13 256.066 1273.93 277.666 1297 295.8C1307 303.533 1328.73 324.733 1324.33 322.333C1323.27 321.666 1310.33 312.066 1295.53 300.866C1249.27 265.8 1229.27 254.333 1209.4 252.066C1192.6 250.2 1166.07 252.466 1137.67 258.466C1121.4 261.933 1121.93 261.4 1129.93 266.733C1142.33 275 1149.8 281.533 1176.33 307.8C1205.27 336.466 1209.93 339.666 1233.67 347.533C1252.2 353.666 1267.67 356.733 1307.67 361.666C1343.27 366.2 1361.53 369.4 1375.53 373.666C1383.27 376.066 1385.53 377.666 1394.87 387C1403.67 395.8 1424.47 421.8 1429 429.666C1430.6 432.2 1425 427.533 1404.6 409.266C1386.73 393.133 1377.27 385.533 1367.4 379.266C1358.33 373.533 1341.53 371.666 1305.13 372.733C1289.93 373.133 1277.13 373.8 1276.73 374.066C1276.47 374.466 1278.6 379.933 1281.4 386.466C1287.4 399.933 1295.67 424.066 1294.73 425C1294.33 425.4 1291.27 419.533 1287.8 412.066C1276.47 387.133 1271.4 381.8 1252.2 374.2C1243.8 371 1220.73 365.666 1215 365.666C1212.47 365.666 1213.67 367.4 1221.8 375.933C1227.27 381.666 1239.53 395.933 1249.13 407.666C1258.73 419.4 1271.27 433.4 1277 438.733C1299.67 459.933 1328.33 474.733 1360.33 481.666C1366.47 483.133 1371.8 483.933 1372.07 483.666C1372.33 483.4 1367 480.333 1360.2 477C1345.4 469.666 1321.53 456.066 1322.2 455.4C1322.47 455.133 1330.07 458.333 1339.13 462.333C1357.93 470.866 1375.67 476.466 1406.33 483.666C1435 490.333 1459.53 497.266 1467.67 501.133C1474.47 504.2 1486.33 513.4 1485.13 514.6C1484.87 514.866 1481.53 513.666 1477.93 511.8C1467.13 506.333 1452.07 500.6 1440.6 497.666C1427.93 494.466 1405.53 491.933 1399.67 493.133L1395.53 493.933L1399.13 504.733C1401.13 510.733 1405 522.6 1407.67 531C1413.67 550.333 1421.27 565.666 1429.13 574.733C1436.47 583.133 1453.93 595.666 1480.33 611.666C1500.47 623.8 1526.6 640.867 1532.33 645.667C1536.07 648.733 1536.73 649 1502.6 633.667C1492.47 629.133 1483.93 625.667 1483.67 625.933C1481.8 627.8 1480.07 653.133 1480.73 671C1481.8 701 1487.67 721.667 1501 741.667C1507.93 752.2 1516.47 760.333 1551 789.667C1564.6 801.267 1579.4 814.6 1583.93 819.267C1592.07 827.533 1592.33 827.933 1595.13 840.333C1597.27 849.933 1598.07 859.533 1598.6 880.333C1599.27 906.467 1597.13 953.533 1595.13 957.4C1592.87 961.533 1586.33 916.067 1581.67 865C1579.67 844.2 1577.93 831.4 1576.6 828.467C1573.53 821.933 1560.33 808.2 1546.33 797C1539.8 791.8 1533.67 787.133 1532.73 786.6C1530.33 785.133 1524.73 797.133 1520.6 812.2C1517.67 823.533 1517.27 827.533 1517.27 848.333C1517.27 865.133 1518.07 877.8 1520.2 893.533C1521.8 905.533 1522.87 915.533 1522.6 915.8C1521.67 916.733 1516.2 897.133 1514.2 885C1510.87 866.6 1512.33 830.067 1517 809.667C1522.6 785.933 1522.6 788.2 1516.2 783.133C1513.13 780.6 1504.47 772.867 1497.13 765.8L1483.67 753.133L1483.27 767.667C1482.33 802.067 1493.13 858.2 1507.13 891.667C1518.47 919 1545.27 960.067 1579.4 1002.2L1590.07 1015.4L1587.8 1029.53C1586.47 1037.27 1583.53 1052.33 1581.27 1063C1577.4 1080.73 1577 1081.93 1576.07 1077C1575.53 1074.07 1575.13 1063.8 1575.13 1054.33C1574.87 1013 1567.13 987.933 1550.47 974.467L1545.4 970.333L1537.27 979C1532.73 983.8 1524.47 993.667 1519 1001.13C1513.53 1008.47 1507.67 1016.33 1506.07 1018.47L1503.13 1022.33L1505.8 1015.8C1509.27 1007.93 1513.8 1000.07 1523.53 985.533C1533.13 971.267 1533.4 966.467 1525.93 952.067C1516.07 933.4 1516.2 933.533 1511 933.933C1506.6 934.333 1506.2 934.733 1502.6 944.2C1492.73 969.933 1487.93 996.467 1487.8 1025C1487.8 1049.4 1490.07 1064.47 1496.73 1085L1501 1098.33L1501.67 1079L1502.33 1059.67L1504.07 1068.33C1507 1082.87 1514.47 1107 1527.93 1144.87C1542.87 1187.27 1543.27 1189.67 1536.33 1206.33C1531.13 1219.13 1518.33 1245 1509.93 1259.67C1503.4 1271.13 1485.93 1297.67 1485 1297.67C1484.73 1297.67 1488.33 1289.4 1493.13 1279.4C1517.4 1228.47 1524.33 1206.07 1524.33 1179.13C1524.33 1160.2 1518.47 1139.93 1509.67 1128.73L1507.4 1125.8L1500.2 1131.53C1481.4 1146.33 1460.07 1174.07 1445 1203.67C1436.73 1219.93 1436.2 1217 1443.93 1197C1452.73 1173.8 1469.8 1149.67 1487.8 1134.6C1493.27 1130.07 1497.67 1125.8 1497.67 1125C1497.67 1124.33 1494.87 1114.6 1491.53 1103.67C1488.2 1092.6 1484.87 1081.8 1484.2 1079.4C1483.53 1077 1482.47 1074.73 1481.8 1074.47C1480.33 1073.53 1464.6 1104.33 1456.87 1123C1448.2 1144.33 1443.67 1157.93 1438.07 1179.67C1431 1207.53 1431.53 1217.8 1443.8 1275.93C1451.8 1314.33 1456.33 1338.6 1456.33 1343.13C1456.33 1345.67 1452.87 1351.27 1445.4 1361.27C1429.53 1382.33 1410.33 1405.8 1396.33 1421C1383.93 1434.6 1355.27 1461.67 1353.27 1461.67C1351.53 1461.67 1361.67 1447.67 1383 1420.33C1408.33 1387.8 1420.47 1369.8 1429.93 1350.33C1438.33 1332.87 1440.33 1325.27 1440.33 1309.8C1440.33 1299.93 1434.87 1261 1433.27 1259.4C1431.8 1258.07 1407.13 1278.87 1390.2 1295.67C1381.4 1304.47 1369.8 1317.27 1364.6 1324.07C1359.27 1331 1355 1336.2 1355 1335.8C1355 1334.07 1360.87 1323.4 1366.07 1315.8C1374.6 1303.27 1388.33 1288.33 1403.93 1275C1411.8 1268.07 1418.73 1261.53 1419.13 1260.33C1419.67 1259.13 1420.47 1247.13 1421 1233.67L1422.07 1209.13L1414.6 1215.53C1388.73 1237.67 1366.33 1273.67 1351.8 1317C1346.73 1331.67 1340.33 1357 1340.33 1361.27C1340.33 1362.6 1343.13 1359.27 1346.6 1354.07C1350.07 1348.73 1353 1344.47 1353.13 1344.73C1353.4 1345 1352.73 1348.07 1351.67 1351.53C1348.07 1363.27 1341.8 1396.73 1339.67 1415C1331.13 1487.27 1332.2 1483.93 1313.27 1499.67C1295.27 1514.6 1273.8 1530.6 1254.2 1543.27C1232.6 1557.53 1227 1560.87 1227 1559.53C1227 1559 1246.33 1539 1270.07 1515.13C1317.67 1467.13 1328.6 1454.6 1331.67 1443.93C1334.73 1433.4 1336.2 1418.87 1336.33 1399.93V1382.87L1306.73 1397.93C1271.8 1415.8 1260.07 1423.27 1251 1433.4C1243.13 1442.2 1235 1457.4 1231.13 1470.33C1229.67 1475.4 1225.67 1492.6 1222.33 1508.33C1219 1524.07 1214.33 1545 1212.07 1554.73C1208.2 1571 1207.53 1572.6 1203.8 1574.87C1197.27 1578.87 1147.27 1603.67 1138.07 1607.53C1124.73 1613.13 1112.33 1617.53 1112.33 1616.87C1112.33 1616.47 1124.47 1608.2 1139.4 1598.47C1169.67 1578.47 1185.67 1566.87 1191.93 1560.2C1198.33 1553.4 1205.13 1541.13 1208.87 1529.8C1212.47 1519.27 1220.33 1488.33 1220.33 1485.27C1220.33 1483.93 1215.67 1484.47 1200.07 1487.93C1188.87 1490.33 1177 1492.6 1173.67 1493C1167.8 1493.8 1167.8 1493.67 1171.13 1491.8C1173 1490.73 1182.2 1487.27 1191.4 1484.2L1208.2 1478.73L1215.53 1463.8C1223.27 1447.8 1226.07 1440.2 1225.4 1437C1225.13 1435.53 1222.73 1436.07 1213.67 1440.07C1188.47 1451.4 1144.6 1482.6 1121.67 1505.67C1093.27 1534.2 1078.2 1560.07 1064.87 1603C1056.47 1630.47 1053.67 1636.6 1047.67 1640.33C1033.8 1648.87 979.667 1661.67 932.333 1667.67C927.8 1668.2 927.8 1668.2 931 1666.47C938.867 1662.2 962.867 1654.2 987.667 1647.53C1021.53 1638.33 1032.87 1633 1044.07 1621.13C1049.27 1615.53 1053 1610.07 1054.73 1605.27C1057.8 1597 1061.67 1579.67 1061.67 1573.8C1061.67 1570.07 1061.27 1569.8 1055.4 1568.73C1045.8 1567.13 1002.33 1567.67 991.667 1569.4C971.4 1572.73 951.8 1581.27 931 1596.07C914.2 1607.93 901.533 1620.07 884.333 1641C876.333 1650.6 866.333 1661.8 861.933 1666.2L853.933 1674.07L840.733 1675.27C819.267 1677.4 744.067 1674.07 727 1670.2C722.333 1669.13 725.267 1667.8 738.333 1664.87C747 1663 758.467 1662.47 799.667 1661.8C857.267 1660.87 852.067 1661.93 865.133 1648.2C873.133 1639.67 895.267 1608.6 895.533 1605.67C895.667 1602.87 876.6 1593.13 863.8 1589.67C839.933 1583.13 806.467 1587.8 778.333 1601.67C761.8 1609.67 748.6 1618.47 720.333 1640.33C687.667 1665.4 688.333 1665 679.933 1663.27C676.067 1662.47 670.067 1661.4 666.333 1660.87C654.467 1659.4 613.4 1648.6 591 1641C564.733 1632.07 562.2 1630.73 573 1631.8C590.6 1633.4 623.533 1637.93 646.333 1641.8C672.733 1646.33 688.2 1647.13 695.133 1644.33C700.6 1642.2 713.533 1633.27 727 1622.47C738.333 1613.27 760.333 1592.47 760.333 1590.87C760.333 1589.67 734.6 1575.13 721.667 1569.27C691.933 1555.53 658.067 1559.13 607.4 1581.27C599.8 1584.6 587 1591.8 579.267 1597.13C552.733 1615.4 545.933 1619 537.933 1619C534.067 1619 527.4 1617.8 523.133 1616.33C513.933 1613.27 467.667 1592.33 459.133 1587.27C450.067 1582.07 440.067 1574.73 440.867 1573.93C442.6 1572.2 464.6 1577.4 488.333 1585C520.867 1595.53 527.533 1596.87 544.333 1596.07L557.533 1595.4L596.6 1576.33C618.067 1565.8 635.933 1557 636.2 1556.87C636.333 1556.6 636.067 1554.87 635.4 1552.87C633.267 1546.33 592.867 1525.67 573.4 1521C548.867 1515.27 531 1519.4 446.333 1550.33C419.533 1560.2 418.067 1560.6 412.6 1559.13C403 1556.6 366.867 1532.6 339 1510.2C320.733 1495.67 289 1466.6 290.733 1465.93C292.733 1465.27 313.533 1470.33 328.333 1475.13C350.6 1482.33 365.933 1490.6 388.333 1507.4C417.933 1529.67 434.067 1537.4 447.133 1535.93C453.8 1535.13 476.2 1527.93 496.067 1520.33C503.667 1517.4 507 1515.4 507 1513.93C506.867 1509.53 498.2 1490.07 492.067 1481C488.6 1475.8 482.067 1467.4 477.4 1462.47C472.067 1456.6 470.2 1453.93 472.333 1455C484.6 1461.27 497 1477 504.467 1495.53L509.267 1507.53L515.133 1507.13C522.867 1506.6 555.267 1501.93 555.933 1501.13C556.867 1500.33 533.8 1479.53 522.333 1471C509.533 1461.4 488.467 1450.6 475.933 1447C464.2 1443.8 450.467 1442.47 440.733 1443.67C433.4 1444.6 433.267 1444.73 436.333 1446.47C438.2 1447.4 440.867 1448.33 442.333 1448.33C448.867 1448.6 440.2 1450.73 427 1452.2C397.4 1455.4 381.267 1456.33 349.667 1456.33C304.867 1456.2 283.8 1454.07 272.333 1448.33C262.867 1443.53 231.8 1408.87 210.333 1379.13L205.267 1372.07L211.133 1373C219.667 1374.33 240.067 1381.27 246.333 1385C249.267 1386.6 262.467 1398.47 275.667 1411.27C289 1423.93 303.667 1436.87 308.333 1439.93C323.667 1449.67 343.8 1452.2 383.667 1449.67C397.933 1448.73 409.667 1447.67 409.667 1447.4C409.667 1447.13 405.4 1438.47 400.2 1427.93C385.267 1398.07 375.533 1384.6 363.4 1376.2C354.733 1370.2 343.267 1364.87 334.2 1362.47C322.2 1359.4 289 1357.67 238.6 1357.67H193.667L187.533 1349.27C177.8 1336.2 154.733 1300.87 147.133 1287.4C138.733 1272.47 127.933 1249.67 128.867 1248.73C129.933 1247.53 141.933 1258.2 149.933 1267.27C153.933 1271.93 164.067 1284.6 172.333 1295.67C190.333 1319.4 209.933 1339.4 220.333 1344.73C231.8 1350.47 243.533 1352.33 268.067 1352.33H289.8L286.333 1346.73C283 1341.27 280.6 1336.47 263.667 1300.87C250.6 1273.27 239.933 1261.13 219.4 1250.73C204.067 1242.87 196.333 1240.33 159.667 1231C119.267 1220.87 116.733 1219.8 111.667 1212.2C109.4 1209 105 1198.47 101.8 1189C94.6001 1167.93 80.8668 1131.67 72.2001 1111.13C68.6001 1102.73 66.0668 1095.53 66.4668 1095.13C66.7334 1094.73 70.6001 1098.2 74.8668 1102.6C85.1334 1113.4 92.8668 1128.6 102.333 1157C106.6 1169.4 111.667 1183.27 113.8 1187.8C121.133 1203.53 136.333 1215.13 159.667 1222.73C173.4 1227.27 200.333 1233.8 200.333 1232.47C200.333 1228.6 195.933 1188.73 194.867 1182.73C192.067 1166.73 186.067 1153.4 176.067 1140.73C160.467 1121.13 143.4 1109.27 102.467 1090.07C74.7334 1076.87 71.0001 1074.87 65.9334 1070.47C56.6001 1062.33 46.0668 1026.73 40.8668 986.467C38.7334 969.4 36.6001 909.667 38.2001 909.667C39.5334 909.667 47.9334 928.333 50.2001 936.6C51.2668 940.467 53.1334 952.2 54.3334 962.733C59.1334 1005.8 66.6001 1033.4 79.9334 1057C91.5334 1077.4 95.0001 1080.47 118.333 1091.8C144.733 1104.47 144.333 1104.33 144.333 1098.73C144.333 1096.33 145 1081.53 145.8 1065.93C147.133 1039.67 146.333 1013.53 143.667 994.867C143.267 991.8 143.933 992.867 145.667 997.933C150.067 1011 151.267 1025.8 150.733 1059.13L150.333 1090.47L153.933 1095.93C155.933 1098.87 162.067 1105.13 167.8 1109.8L178.067 1118.2L177.133 1093.67C175.533 1053.8 170.733 1027.53 160.867 1003.93C153.533 986.467 149.267 980.867 133.533 969C111.533 952.333 48.3334 894.733 44.8668 888.067C43.8001 885.933 42.3334 876.333 41.4001 866.333C39.0001 837 42.7334 800.733 52.4668 759.667C54.7334 750.067 57.2668 741.667 57.9334 741C59.8001 739.133 58.4668 767 54.8668 800.733C48.8668 857.667 53.6668 888.067 71.6668 908.067C76.6001 913.533 95.0001 928.2 102.6 932.733C103.533 933.4 105 930.467 107 924.067C108.6 918.867 112.067 909.4 114.867 903.133C119.933 891.4 134.733 865 135.8 865.933C136.467 866.733 131.533 881.133 124.467 898.6C121.4 906.2 118.333 916.333 117.4 921.4C115.933 930.467 115.933 930.467 120.333 938.867C124.467 946.467 136.067 961.133 137.133 959.933C138.067 959 152.467 887 153.667 877.133C156.2 855.933 150.867 829.267 140.867 813.667L136.2 806.333L137 811.667C139.4 827 139.533 826.867 133 815C129.533 808.733 117.267 789.267 105.667 771.667C94.0668 754.067 82.4668 735.8 79.9334 731C75.2668 722.333 75.2668 722.333 76.4668 711.667C77.9334 699 81.8001 682.333 86.6001 667.667C96.6001 637.133 126.2 568.866 131.4 564.6C132.867 563.4 133 565 132.067 574.066C129.133 603 122.733 628.6 109 666.6C89.4001 720.467 87.9334 736.2 100.467 754.6C104.467 760.333 122.733 779 124.333 779C125.933 779 154.867 733.4 160.6 721.667C175.933 691 176.333 661.8 162.2 622.2C142.467 566.6 139.533 555.8 141.533 546.733C142.2 544.066 145.133 537.133 148.2 531.533C154.2 520.333 183.533 475.666 185.667 474.333C187.4 473.266 187.267 475.533 185 492.6C181.4 520.333 175.667 536.6 163.133 555C149.533 574.866 149.4 575.666 153.8 588.6C157.267 599.133 169.8 625.8 171 625.4C172.733 624.6 196.733 597.666 206.467 585.533C211.933 578.6 219.267 568.733 222.733 563.4C226.2 558.2 229.8 552.866 230.6 551.4C233.667 546.866 226.867 563.666 222.333 571.8C217.667 580.066 206.333 595.667 191.4 614.067C179.933 628.467 179 632.467 182.6 655.667C183.4 660.867 183.4 661 180.733 658.6C179.267 657.4 177.8 656.333 177.4 656.333C177 656.333 176.333 664.867 175.933 675.267C174.867 705.533 169.533 721 149.8 751.933C144.867 759.8 139.667 768.2 138.467 770.6C135.667 776.2 135.8 786.333 138.867 793C141.933 799.667 151 810.2 152.467 808.733C153.8 807.4 164.867 779.533 172.733 757.533C180.067 737.4 183.4 721.4 186.333 693C188.867 668.067 189 667.8 211.933 626.733C220.067 612.2 229 594.866 231.667 588.066L236.6 575.666L235.933 556.333C234.867 529.933 230.733 510.866 221.933 491.666C210.067 465.666 206.333 455 203.4 437.933L202.333 432.2L197.8 440.6C185.667 463 177.667 475 158.867 498.333C132.733 531 129.4 536.2 109.667 575.133C100.733 593 88.7334 616.067 83.2668 626.333C67.9334 655 66.7334 659.533 66.8668 688.067C66.8668 699.267 66.4668 708.2 65.9334 707.8C65.4001 707.533 59.9334 700.333 53.6668 691.8C47.4001 683.4 41.9334 676.467 41.5334 676.333C41.1334 676.333 41.5334 681.533 42.4668 687.933C43.4001 694.467 44.2001 706.6 44.2001 715.133C44.3334 734.6 40.2001 751.933 28.6001 781C16.3334 811.667 15.8001 814.333 15.6668 835V853L21.9334 866.867C25.4001 874.6 28.0668 881 27.9334 881.133C27.8001 881.4 21.6668 878.067 14.3334 873.667C7.0001 869.4 0.733432 866.067 0.466766 866.333C0.200099 866.6 2.2001 870.333 4.73343 874.6C11.5334 885.933 15.6668 894.6 19.0001 904.333C22.6001 914.867 22.8668 933 19.6668 960.333C14.8668 1003.8 17.5334 1016.33 39.1334 1050.6C43.4001 1057.4 46.4668 1063 45.9334 1063C45.2668 1063 39.9334 1061.27 33.9334 1059C27.8001 1056.87 22.6001 1055 22.3334 1055C22.0668 1055 25.0001 1059.4 28.8668 1064.87C38.0668 1077.67 46.8668 1095 53.0001 1112.33C59.9334 1131.93 68.0668 1148.6 86.8668 1181.53C95.8001 1197.13 103.267 1210.6 103.4 1211.53C103.533 1212.33 102.067 1213.13 99.9334 1213.4L96.3334 1213.8L102.333 1219.93C115.533 1233.13 123.267 1248.33 134.333 1283.67C152.333 1340.87 161.667 1356.33 186.467 1370.33C201.267 1378.6 205.533 1382.33 212.333 1393C219.267 1404.07 233.533 1432.87 238.467 1445.67C245.267 1463.53 256.867 1472.33 292.333 1487C311.933 1495 314.467 1497.13 334.067 1522.33C351.8 1545.13 364.733 1558.07 373.8 1562.33C377.8 1564.07 389.133 1567.13 399 1569C408.867 1571 419.667 1573.8 423 1575.13C427.4 1577.13 435.267 1584.2 452.333 1601.53C465.133 1614.73 478.2 1627 481.4 1629.13C489.4 1634.2 498.6 1635.27 522.6 1633.53L542.733 1632.07L556.6 1638.6C564.067 1642.2 576.6 1649.13 584.333 1653.8C617.267 1674.2 627.267 1678.33 643 1678.33C649.267 1678.33 658.733 1677.8 664.2 1677.13C673.933 1676.07 673.933 1676.07 673 1679C672.2 1681.67 672.333 1681.93 675.133 1681.13C702.067 1673.53 705.667 1673.93 739 1688.73C761.667 1698.73 767.4 1700.6 778.6 1701.4C790.867 1702.2 798.333 1700.73 825.667 1691.8C837.8 1687.93 847.8 1684.87 848.067 1685C848.333 1685.27 845.533 1689.53 841.933 1694.6C838.2 1699.53 835.667 1703.8 836.2 1704.07C836.867 1704.2 845.267 1700.73 855 1696.33C881 1684.47 882.2 1684.2 922.333 1683.53C977 1682.73 977.267 1682.73 993 1675.13C1000.33 1671.67 1015 1664.2 1025.4 1658.6C1035.93 1653 1044.73 1648.33 1045 1648.33C1045.27 1648.33 1044.6 1651.67 1043.4 1655.8C1042.33 1659.93 1041.8 1663.53 1042.2 1663.93C1042.47 1664.2 1046.87 1661.53 1051.93 1657.93C1071.4 1643.93 1076.33 1642.2 1120.33 1635C1163.27 1628.07 1161.13 1629.13 1190.33 1599.53C1218.6 1571.13 1221.53 1569.4 1259 1561.13C1282.07 1555.93 1293.13 1551.53 1299.8 1544.87C1302.87 1541.8 1311.93 1529.53 1320.07 1517.53C1328.07 1505.53 1337.4 1492.6 1340.87 1488.73C1349.13 1479.53 1361.53 1471.53 1383.27 1461C1404.6 1450.73 1415.27 1443.93 1421.93 1436.6C1428.07 1429.8 1430.07 1426.07 1440.33 1400.33C1449.8 1376.87 1463.53 1349.27 1470.2 1340.2C1472.73 1336.87 1483.4 1327.13 1494.07 1318.6C1526.73 1292.47 1527 1292.2 1539.53 1229.8L1546.47 1195.8L1550.6 1203.13C1558.73 1217.27 1558.2 1217.8 1560.07 1191.4C1562.87 1151 1565.4 1143.13 1585.4 1110.2C1601.67 1083.4 1607 1072.07 1607 1064.33C1607 1059.27 1604.73 1048.87 1600.73 1035.67C1600.07 1033.4 1600.6 1033.53 1604.87 1036.73C1607.53 1038.87 1609.67 1040.07 1609.67 1039.67C1609.67 1039.27 1607.53 1030.87 1605 1020.87C1602.47 1011 1600.33 1000.07 1600.33 996.6C1600.33 987 1603.53 976.467 1611 961.667C1619.27 945.267 1624.33 930.333 1624.33 922.733C1624.33 919.533 1620.47 902.6 1615.67 885C1610.87 867.4 1606.6 850.867 1606.07 848.333L1605.27 843.667L1613.27 850.733C1617.8 854.467 1621.67 857.667 1622.2 857.667C1622.6 857.667 1620.73 853 1618.2 847.267C1593.27 793.533 1594.47 798.6 1594.33 749C1594.33 701 1595.13 704.2 1579.13 682.867C1573.93 675.8 1569.67 669.667 1569.67 669.267C1569.67 668.867 1574.33 670.067 1580.07 671.8C1585.67 673.533 1590.87 674.867 1591.53 674.6C1592.2 674.333 1588.73 670.733 1583.93 666.467C1573.67 657.4 1567.67 649 1565 639.667C1563.93 636.067 1561.27 623.266 1559 611.4C1551.53 569.8 1551.8 570.333 1523.8 545.266C1511.67 534.333 1500.87 523.933 1499.67 522.066L1497.4 518.6L1506.47 519.666L1515.67 520.6L1505 511.933C1491.53 501.133 1480.73 489.666 1474.33 479.8C1468.6 470.733 1467.13 467.4 1460.07 447C1453.13 427.266 1447.8 416.6 1442.6 411.933C1440.2 409.933 1431.13 403.266 1422.33 397.4C1413.53 391.4 1402.07 382.6 1397 377.8C1391.8 373 1383.27 365.4 1377.93 361C1365.67 351 1356.87 340.466 1341.27 317.666C1334.47 307.8 1324.87 295.4 1319.67 290.2C1309.13 279.666 1301.13 275.266 1273.67 264.866C1247.8 255.133 1192.2 226.2 1158.33 205C1134.47 189.933 1125.53 185.666 1100.2 177.266C1073.13 168.2 1050.87 163.133 1034.73 162.333L1022.33 161.666L999 173.666Z" fill="#2F2514"/>
<path d="M740.333 189.133C734.067 193.133 723.4 199.533 716.733 203.4C709.933 207.133 704.333 210.733 704.333 211.133C704.333 212.2 729.933 219.667 745 222.867C786.334 231.8 844.734 228.467 887 214.867C895.667 211.933 919.4 201.533 918.6 200.867C918.467 200.733 911.667 201.667 903.667 203.133C884.6 206.467 851.667 207.8 833.8 205.8C807.134 202.867 777.267 194.867 759.4 185.8L751.533 181.933L740.333 189.133Z" fill="#2F2514"/>
<path d="M916.067 208.733C911.267 211.133 901.667 215 894.733 217.533C887.933 219.933 880.6 222.6 878.6 223.4L874.867 224.733L879.133 227.267C885.933 231.4 909.133 241.533 925 247.267C966.2 262.2 1012.6 269.133 1049.93 265.933C1067.53 264.467 1087.4 261.667 1086.6 260.867C1086.33 260.6 1076.07 259.533 1063.53 258.333C1024.87 254.733 1006.33 250.333 982.333 239.133C967 231.933 957 225.933 941.267 214.067C934.067 208.733 927.4 204.333 926.6 204.467C925.667 204.467 921 206.467 916.067 208.733Z" fill="#2F2514"/>
<path d="M691.667 219C688.734 219.666 681 222.066 674.334 224.333C667.8 226.733 661.267 228.866 660.067 229.266C656.334 230.333 657.267 231.933 662.067 232.733C664.334 233.266 673.267 235.4 681.667 237.666C698.334 242.2 709.134 242.866 727 240.333C738.2 238.866 758.6 235.133 761.667 234.2C764.6 233.133 704.2 217.533 699 217.8C697.934 217.933 694.6 218.466 691.667 219Z" fill="#2F2514"/>
<path d="M841 235.666C822.733 239.133 822.333 239.533 832.6 242.733C851.933 248.733 899.267 254.866 915.533 253.4C920.467 253 920.067 252.733 905.533 246.733C897.133 243.133 886.733 239.133 882.333 237.533C871.8 233.933 854.867 233.133 841 235.666Z" fill="#2F2514"/>
<path d="M724.6 261.8C745.133 285.133 747 288.466 747 302.066C747 326.866 735.133 352.733 708.733 385.4L705.267 389.8L712.467 387C754.067 370.733 797.267 339.133 836.067 297L847 285.133V298.333C846.867 314.2 845.4 318.733 837.267 329.266C823.533 347.266 810.067 356.2 782.333 365.666C767.4 370.866 758.733 375.266 755.4 379.266C754.067 380.733 757.8 380.6 776.733 378.066C831.8 370.866 861.8 361.133 893.267 340.333C908.333 330.466 920.6 317.533 926.467 305.133C934.467 288.6 931.8 280.2 915.933 271.133C897.933 261 876.067 256.333 846.867 256.333H827.4L816.2 263.133C802.867 271.133 800.6 271.133 782.067 263.666C762.467 255.666 752.6 253.666 733.933 253.666H717.4L724.6 261.8Z" fill="#2F2514"/>
<path d="M373.134 262.2C371 265.533 371.134 265.533 378.467 268.867C382.6 270.733 386.467 272.333 387.134 272.333C389.667 272.333 388.067 275.8 380.867 285.4C372.2 296.867 363.267 306.333 334.334 335C322.867 346.333 310.867 359.533 307.667 364.333C297 380.333 291.8 402.333 292.6 428.067L293 441.933L304.867 427.4C320.734 408.333 372.867 356.333 393.4 339.133C402.467 331.667 419.534 318.333 431.4 309.4C443.267 300.6 454.734 291.8 456.734 289.8C461.134 285.8 468.334 275.8 468.334 273.8C468.334 272.067 449.667 266.2 438.334 264.333C430.334 263 384.6 259 378.2 259C376.6 259 374.334 260.467 373.134 262.2Z" fill="#2F2514"/>
<path d="M934.067 276.2C945 288.067 947.533 293.533 946.6 303.8C945.8 315.267 940.733 325.4 930.733 335.933C919.133 348.067 908.467 355.267 883.8 367.933L862.467 378.733L867.667 380.067C894.733 387 958.333 386.2 980.867 378.733C996.467 373.667 1008.73 363 1019.4 345.4C1025.53 335.133 1026.07 327.4 1021 316.6C1014.87 303.267 993 285.267 974.6 278.333C966.467 275.267 948.067 271.133 933 268.867L926.333 267.933L934.067 276.2Z" fill="#2F2514"/>
<path d="M1083.4 270.067C1077.27 270.867 1072.33 271.8 1072.33 272.2C1072.47 273.133 1077.4 276.467 1121.8 306.333C1168.47 337.8 1201 352.333 1231.67 355.667L1239.67 356.467L1218.33 345.8C1206.6 339.933 1193 332.2 1188.2 328.467C1183.4 324.733 1171.8 313.4 1162.6 303.133C1145.53 284.333 1134.33 275.267 1121.93 270.6C1115.53 268.067 1101.53 267.933 1083.4 270.067Z" fill="#2F2514"/>
<path d="M1021.67 278.867C1021.67 279.534 1024.47 282.6 1028.07 285.667C1037.8 294.334 1055.4 301.934 1084.33 310.067C1098.6 314.2 1111.53 317.8 1113 318.334C1115.27 319.134 1115.13 318.734 1112.33 316.334C1105.8 310.734 1084.87 295.267 1073.53 287.8C1062.33 280.334 1061.67 280.067 1049.53 279C1033.27 277.4 1021.67 277.4 1021.67 278.867Z" fill="#2F2514"/>
<path d="M450.2 300.733C429.8 315.8 414.2 328.467 397.933 343C383.667 355.8 364.333 377 364.333 379.533C364.333 380.333 367.267 384.2 370.733 388.2L377.133 395.267L386.6 383.533C399.133 367.8 424.2 343.667 442.334 329.533C451.934 322.067 458.067 316.333 459.934 312.867C462.867 307.533 467.4 289.533 465.8 289.8C465.4 289.8 458.334 294.733 450.2 300.733Z" fill="#2F2514"/>
<path d="M1029 306.6C1039.93 319.4 1041.13 322.467 1039.93 335.267C1037.93 357 1023.27 370.333 984.333 385.533C965.8 392.733 965.4 393.133 971.8 394.867C996.467 401.4 1026.6 403.4 1050.73 399.8C1059.13 398.6 1069.13 396.333 1073.13 394.867C1082.2 391.4 1092.47 381.533 1095.67 373.133C1102.07 356.467 1090.6 335 1067.13 319C1060.07 314.2 1021.93 295 1019.53 295C1019.13 295 1023.4 300.2 1029 306.6Z" fill="#2F2514"/>
<path d="M631.533 310.2C625.667 312.067 615.933 318.333 611.8 322.867C609.4 325.533 609.933 325.4 618.467 321.933C631.933 316.333 638.867 314.733 646.867 315.267C653.4 315.667 654.467 316.2 658.2 320.733C661.667 325.133 662.333 327.133 662.733 335C663.8 352.6 655 364.2 617.667 394.333C591.133 415.667 583.667 422.6 574.733 433.667C561.933 449.4 555 467.267 555 485V491.667L563.267 476.333C567.667 467.933 573.667 457.667 576.467 453.667C582.6 444.6 598.867 428.733 625.267 405.933C670.333 366.733 681 348.067 670.467 326.467C662.867 311 648.333 305 631.533 310.2Z" fill="#2F2514"/>
<path d="M635.267 322.867C633.667 323.267 630.2 325.4 627.533 327.533C622.867 331.267 622.733 331.533 623.267 338.867C623.533 343 625.267 349.933 627 354.467L630.2 362.6L638.2 359.4C648.067 355.4 650.733 353.533 653.8 348.733C661.667 336.867 649 319 635.267 322.867Z" fill="#2F2514"/>
<path d="M604.2 342.067C599.133 348.467 595 357 595 361.4C595 363.4 596.733 367.933 598.867 371.267C604.2 379.533 610.733 381.8 619.533 378.467C626.067 375.933 636.333 369 636.333 367.133C636.333 366.467 632.6 365.267 628.067 364.467C616.467 362.467 613.4 359.8 611.133 350.2C608.067 337 608.2 337 604.2 342.067Z" fill="#2F2514"/>
<path d="M1105.93 340.467C1107.13 342.333 1112.07 350.2 1116.87 358.067L1125.53 372.2L1116.33 384.2C1105.8 397.8 1095.4 405.933 1084.33 409.4C1073.67 412.6 1053 412.333 1031.13 408.467C1017.67 406.2 1009.93 405.533 999.134 405.933C986.334 406.333 984.2 406.867 975.934 411C970.867 413.4 965.8 417 964.6 418.733C962.334 422.2 957.534 435.4 958.334 436.067C958.6 436.333 961.667 434.333 965.267 431.533C972.867 425.667 984.067 420.333 997 416.467C1007.27 413.533 1031.13 409.267 1032.2 410.333C1032.47 410.733 1031.13 412.867 1029 415C1026.87 417.133 1025.4 419.133 1025.8 419.533C1026.07 419.8 1035 423.933 1045.67 428.6C1068.2 438.733 1086.47 445.8 1101.13 449.8C1110.87 452.6 1112.73 452.6 1127.67 451.267C1160.33 448.333 1174.47 437 1171.8 415.933C1170.47 406.2 1163.8 389.133 1158.47 381.8C1149.27 369.4 1128.87 352.2 1109 340.2L1103.67 337L1105.93 340.467Z" fill="#2F2514"/>
<path d="M883.667 354.333C858.334 366.733 846.867 370.2 809 377C788.467 380.733 778.334 384.6 766.2 393.4C760.334 397.667 752.467 408.6 748.467 418.067L745.934 424.067L754.6 417.533C768.067 407.267 781 401.533 815 390.467C848.734 379.667 862.6 373.667 879.534 362.467C891.134 354.867 901.4 346.867 899.534 347.133C898.867 347.133 891.8 350.467 883.667 354.333Z" fill="#2F2514"/>
<path d="M552.334 370.6C546.067 379.8 540.867 387.933 540.6 388.467C540.2 389.4 563.8 380.333 567.134 378.2C567.8 377.8 565.134 358.067 564.067 354.867C563.8 354.2 558.6 361.4 552.334 370.6Z" fill="#2F2514"/>
<path d="M1185.8 367.934C1198.33 389.134 1222.07 412.067 1249 429.134C1252.87 431.667 1252.87 431.667 1246.6 419.667C1234.07 396.067 1227.13 386.334 1219.13 381C1212.47 376.6 1185.67 363 1183.53 363C1183.13 363 1184.07 365.267 1185.8 367.934Z" fill="#2F2514"/>
<path d="M282.2 377.4C256.333 394.6 244.333 404.467 231.133 419.533C221.267 430.867 218.6 437 218.733 449.667C218.733 458.333 219.667 462.067 224.2 474.333C230.2 490.067 234.333 497.933 240.6 505.133C248.067 513.533 248.067 513.533 259.267 499.267C281.4 471 283.133 466.067 284.2 427.667L285.133 398.333L292.733 382.467C296.867 373.8 300.2 366.467 300.067 366.2C299.8 366.067 291.8 371.133 282.2 377.4Z" fill="#2F2514"/>
<path d="M1177.67 379.667C1177.67 380.067 1180.6 386.067 1184.2 392.733C1193.27 409.533 1196.33 419.4 1196.33 431.267C1196.2 450.733 1186.2 461.4 1165.53 463.8C1159.13 464.467 1126.87 462.733 1113 460.867L1107.67 460.067L1111.67 463.533C1119.93 470.733 1141.53 484.467 1153.93 490.333C1168.87 497.4 1183.27 501.267 1199.27 502.467C1209.4 503.267 1211.4 503 1216.73 500.467C1220.07 498.867 1225 495.133 1227.67 492.067C1244.73 473.267 1241 450.333 1215.13 415C1206.73 403.533 1177.67 376.067 1177.67 379.667Z" fill="#2F2514"/>
<path d="M505.667 390.6C500.067 393.267 493.133 399.4 476.733 415.8C464.867 427.667 452.6 439.133 449.4 441.4C446.2 443.533 434.467 449.933 423.4 455.533C412.2 461.133 403 466.067 403 466.467C403 467.267 411.933 466.2 426.333 463.533C442.867 460.333 457.4 452.467 486.2 431C507.4 415.267 521.933 405.667 524.867 405.667C525.133 405.667 526.6 408.867 528.067 412.6C533.133 426.067 533.8 427.4 534.333 426.867C534.867 426.333 541.667 396.867 541.667 395C541.667 394.467 538.2 392.467 533.8 390.467C523.533 385.933 515.4 385.933 505.667 390.6Z" fill="#2F2514"/>
<path d="M913 389.267C893.533 391.533 885.667 394.867 870.467 407C859.267 416.067 856.733 418.867 862.467 415.933C869.4 412.333 888.467 407 912.867 401.667C926.2 398.733 942.067 395 948.333 393.4L959.667 390.333L953 389.4C946.067 388.6 920.067 388.333 913 389.267Z" fill="#2F2514"/>
<path d="M674.334 403.133C620.2 433.133 610.6 440.2 603 456.733C598.6 465.933 594.467 481.133 593.134 492.333L592.2 499.667L599.667 485.4C608.467 468.6 610.6 466.467 645.267 439.533C667.934 421.933 691 401.133 696.6 393.267C698.067 391.267 699 389.667 698.734 389.8C698.467 389.8 687.534 395.8 674.334 403.133Z" fill="#2F2514"/>
<path d="M1250.33 451.667C1263.93 491.533 1259.53 510.067 1234.33 519.267C1224.33 522.867 1201 523.933 1181.53 521.667C1174.07 520.867 1167.8 520.333 1167.53 520.733C1167.27 521 1172.33 525.133 1178.73 529.933C1216.2 558.2 1260.07 572.067 1280.07 561.8C1292.6 555.4 1296.47 543.8 1293.67 521.133C1291.8 506.467 1287.53 496.2 1276.47 479.933C1269.4 469.4 1248.87 447.133 1250.33 451.667Z" fill="#2F2514"/>
<path d="M281 473.267C275.267 482.6 265.934 497.533 260.2 506.467C254.467 515.267 248.6 526.333 247 531.133C243.667 540.867 241.934 558.733 243.934 562.333C246.734 567.4 268.2 532.2 278.467 505.533C283.134 493.533 292.867 457.8 291.8 456.733C291.534 456.467 286.6 463.933 281 473.267Z" fill="#2F2514"/>
<path d="M1290.07 471.267C1290.47 472.2 1292.87 478.2 1295.53 484.733C1300.6 497 1303.13 501.667 1307.53 506.867C1309.93 509.4 1346.73 537.667 1351.93 540.733C1354.07 542.067 1349 530.733 1338.07 509.4C1328.33 490.467 1330.07 492.067 1303.93 477.133C1289.8 469.133 1289 468.733 1290.07 471.267Z" fill="#2F2514"/>
<path d="M1333.67 484.067C1333.67 484.867 1338.73 493 1344.87 502.2C1371.4 541.933 1406.2 580.467 1429.27 595.8C1438.2 601.667 1454.33 609.4 1460.33 610.467C1464.47 611.267 1463.27 609.933 1449 598.067C1431 583.133 1427 578.867 1418.47 565.933C1411.67 555.533 1410.07 551.933 1402.73 531C1395.67 510.867 1392.07 503.933 1386.47 499.667C1380.73 495.267 1367.93 490.733 1351 487C1344.07 485.533 1337.27 483.933 1336.07 483.533C1334.73 483.133 1333.67 483.4 1333.67 484.067Z" fill="#2F2514"/>
<path d="M1301.67 512.333C1301.67 513.4 1302.6 517.933 1303.53 522.333C1304.6 526.733 1306.33 536.467 1307.53 544.067C1309.93 559.4 1309.27 564.733 1303.8 572.2C1291.27 589.133 1272.6 589.933 1230.87 574.867C1220.73 571.267 1212.2 568.333 1211.8 568.333C1211.4 568.333 1215.4 572.467 1220.73 577.533C1243.27 599 1263.53 613.8 1282.2 622.467C1292.87 627.4 1311.4 632.333 1319 632.333C1329.13 632.2 1339.67 624.333 1343 614.333C1346.07 605.133 1340.2 575.133 1331.67 555.667C1325.67 542.2 1317.8 530.067 1304.07 513.133C1302.33 511.133 1301.67 510.867 1301.67 512.333Z" fill="#2F2514"/>
<path d="M300.2 599.267C290.867 610.467 288.333 614.2 272.333 640.333C264.067 653.933 253.933 670.333 249.933 677C234.6 701.933 219 738.333 212.333 764.2C207.667 782.467 207.267 782.867 233 742.333C249.133 716.867 248.2 718.333 248.867 719.133C249.133 719.4 251.4 732.333 253.667 747.667C257.667 774.067 258.733 777.533 262.6 777.667C264.2 777.667 264.467 775.533 266.867 747C269.8 712.067 292.6 621.933 304.467 598.733C305.933 595.8 306.867 593.133 306.6 592.867C306.333 592.467 303.4 595.4 300.2 599.267Z" fill="#2F2514"/>
<path d="M1352.33 594.333C1352.33 595.4 1353.27 603 1354.47 611.267C1358.47 639.4 1354.07 651.667 1338.07 657.667C1323.53 663.133 1307.4 660.6 1279.27 648.467C1270.33 644.467 1262.6 641.533 1262.33 641.8C1261.67 642.6 1275.8 661.4 1284.73 671.533C1295.67 683.933 1312.47 696.867 1326.87 704.067C1338.73 709.933 1340.07 710.333 1350.2 710.333C1362.07 710.333 1367.13 708.467 1374.73 701.267C1380.73 695.533 1383 686.867 1383 670.333C1383 653.933 1379.93 641 1372.33 624.6C1367.53 614.467 1354.2 592.333 1352.87 592.333C1352.6 592.333 1352.33 593.267 1352.33 594.333Z" fill="#2F2514"/>
<path d="M1387.4 614.6C1387.8 627.267 1388.87 636.2 1390.07 639.133C1391.13 641.667 1397.13 649.933 1403.67 657.667C1417.13 673.8 1423.93 683.133 1433.67 699.4C1437.53 705.8 1440.87 710.867 1441.13 710.733C1441.27 710.467 1439.4 701.933 1436.87 691.667C1434.33 681.4 1430.07 662.6 1427.13 649.933C1421.27 623.533 1422.87 626.067 1400.47 606.6L1386.6 594.6L1387.4 614.6Z" fill="#2F2514"/>
<path d="M1427 610.467C1427 614.067 1431.93 634.2 1435.27 644.333C1440.73 661.4 1465 707 1480.47 729.667C1488.07 740.733 1499 754.733 1499 753.267C1499 752.867 1495.4 743.533 1491.13 732.6C1478.33 699.933 1477.4 695.533 1476.73 657.933L1476.07 625.533L1471.13 623.533C1463.8 620.467 1434.73 609.933 1430.6 609C1427.67 608.2 1427 608.467 1427 610.467Z" fill="#2F2514"/>
<path d="M247.667 645.133C239.534 655.133 224.2 678.733 215.267 695.267C199.4 724.6 181.534 769.533 167 816.867C161.267 835.4 160.2 840.467 160.734 845.8C161.4 851.533 171.4 879.533 173.534 882.067C174.067 882.6 177.8 876.333 181.667 868.2L188.867 853.267L189.8 830.467C191.267 797 196.334 774.2 211.934 730.333C216.734 716.867 224.867 698.6 233.934 680.6C247.134 654.733 254.334 639 253.134 639C252.867 639 250.467 641.667 247.667 645.133Z" fill="#2F2514"/>
<path d="M1391.53 686.067C1391.4 708.067 1390.07 714.067 1383.53 722.6C1379.8 727.533 1370.47 732.733 1361.13 735.133C1349.27 738.067 1335.27 733.533 1315.4 720.067C1310.07 716.467 1305.67 714.2 1305.67 715.133C1305.67 717.8 1317.4 740.733 1323.27 749.667C1330.33 760.467 1345.27 775.667 1355 782.067C1363.27 787.533 1376.07 792.333 1382.2 792.333C1387.67 792.333 1398.73 787 1403.27 782.2C1410.73 774.2 1412.33 768.2 1412.33 747.533C1412.33 726.733 1410.2 711.8 1404.87 694.733C1401 682.733 1393.8 665.667 1392.47 665.667C1392.07 665.667 1391.67 674.867 1391.53 686.067Z" fill="#2F2514"/>
<path d="M284.733 693.667C279 712.333 276.733 724.2 275 745C273.667 762.067 274.467 792.333 276.333 792.333C277.8 792.333 287.133 781.8 291.933 775C302.2 759.933 309.933 740.6 322.6 697.667C323 696.6 318.867 704.067 313.4 714.333C303.4 733.533 292.6 750.333 291.133 748.867C290.733 748.467 290.067 732.733 289.667 713.933L289 679.667L284.733 693.667Z" fill="#2F2514"/>
<path d="M1448.6 757L1449.13 785L1457.4 804.333C1461.93 815 1468.33 829 1471.67 835.667L1477.53 847.667L1476.87 827C1475.67 793.8 1474.07 777.533 1471 769.4C1468.73 763.4 1451.13 732.067 1448.73 729.667C1448.33 729.267 1448.33 741.533 1448.6 757Z" fill="#2F2514"/>
<path d="M235.933 749.933C204.333 813.8 192.467 878.6 198.467 955.267C199.267 964.067 199.667 965.667 201.667 965.667C204.733 965.667 205.667 963.133 205.667 954.6C205.8 940.867 213.4 897.4 216.333 894.467C217.933 892.867 227.533 908.067 237.533 927.933C242.067 937 245.8 944.333 246.067 944.333C246.2 944.333 245.933 940.333 245.4 935.267C243.267 916.333 242.6 823.8 244.333 778.6C245.267 753.8 245.667 733.267 245.4 732.867C245 732.6 240.733 740.2 235.933 749.933Z" fill="#2F2514"/>
<path d="M1430.47 750.6C1430.07 753.4 1429.13 761.4 1428.2 768.333C1426.2 784.867 1423 795.133 1416.87 803.933C1409.93 813.933 1402.47 818.2 1391.13 818.2C1379.53 818.333 1367.27 812.6 1347.8 797.8C1339.93 791.8 1333.13 787.133 1332.87 787.4C1331.67 788.6 1339.53 812.467 1345 824.067C1367.67 871.8 1395.93 889.267 1417.67 868.867C1425.53 861.533 1432.87 847.933 1436.47 834.067C1439.93 820.733 1441.27 793.133 1439.13 777.4C1437.67 766.333 1433.27 747.533 1431.93 746.2C1431.53 745.8 1430.87 747.8 1430.47 750.6Z" fill="#2F2514"/>
<path d="M263 818.2C263 825.133 281.933 909.133 283.933 911C285.4 912.333 281.4 837.8 279.667 829C279 825.8 263 815.4 263 818.2Z" fill="#2F2514"/>
<path d="M253 847C253.667 871.667 255.933 894.2 260.333 923.4C263.267 942.2 272.067 987.267 273.667 991.667C274.2 993 275 979 275.533 960.333C276.6 923.933 275.533 909.4 271 894.733C269.533 890.067 266.067 875.533 263 862.333C260.067 849 256.467 835 255 831L252.333 823.667L253 847Z" fill="#2F2514"/>
<path d="M1445.8 858.333C1439.53 876.867 1433 890.867 1428.07 895.933C1419 905.267 1399 907.533 1384.2 900.867C1374.87 896.6 1368.47 890.067 1354.2 869.8C1343.13 854.2 1342.73 854.467 1346.47 873.667C1349.93 892.067 1357.4 916.333 1363.53 929C1382.87 968.733 1414.87 968.867 1438.73 929.4C1449.8 911 1454.73 880.867 1451.13 852.333L1450.33 845L1445.8 858.333Z" fill="#2F2514"/>
<path d="M1476.33 889.133C1465.4 917.667 1465.13 918.867 1465.27 935.667C1465.27 948.067 1466.2 955.667 1469.27 969.533L1473.13 987.4L1476.2 976.867C1477.8 971.133 1481.93 958.867 1485.27 949.667C1490.6 934.733 1491.13 932.2 1490.6 925C1489.93 918.333 1480.47 888.067 1478.33 885.933C1478.07 885.533 1477.13 887 1476.33 889.133Z" fill="#2F2514"/>
<path d="M215.667 945.4C214.067 983.4 216.333 1023.13 221.533 1050.6C227.4 1080.6 239.4 1111.67 253 1132.33L257.8 1139.67L257.133 1132.33C253.667 1097.8 253 1072.47 255.4 1070.07C256.6 1069 267.933 1076.2 275 1082.6C278.6 1085.8 288.067 1096.6 295.8 1106.47C303.667 1116.2 310.333 1124.07 310.6 1123.93C312.067 1122.33 300.467 1094.47 288.6 1071C281.133 1055.93 271.267 1035.53 266.733 1025.67C262.333 1015.8 249.8 989.267 238.867 966.733C227.933 944.2 219 925.133 219 924.467C219 923.8 218.467 922.867 217.8 922.467C217.133 922.067 216.2 932.067 215.667 945.4Z" fill="#2F2514"/>
<path d="M1349.27 945.533C1347.67 960.733 1348.2 987.667 1350.33 997.933C1355 1019.67 1365.27 1034.07 1379.13 1038.2C1387.4 1040.73 1391.13 1040.87 1398.2 1038.87C1413.53 1034.6 1432.07 1005 1438.2 974.733C1440.33 964.2 1443.27 940.2 1442.47 939.4C1442.2 939.133 1438.87 945.933 1435.13 954.6C1425.13 976.867 1417.67 986.867 1406.47 992.6C1400.2 995.8 1389.13 995.533 1381.53 991.8C1369.93 986.333 1363 975.8 1355 951.667L1350.07 937L1349.27 945.533Z" fill="#2F2514"/>
<path d="M177.267 951.8C175.267 955.267 169.4 976.467 169.267 981C169.133 984.733 171.4 991.8 176.333 1003.67C180.2 1013.13 184.733 1024.6 186.333 1029C188.867 1035.53 189.933 1037.13 192.733 1037.4C196.6 1037.93 196.733 1037.67 199.133 1017.27C201.267 998.867 200.2 989.933 194.467 978.467C188.067 965.8 178.2 950.333 177.267 951.8Z" fill="#2F2514"/>
<path d="M1339.27 1030.6C1332.07 1057 1330.33 1087.13 1335.27 1099C1339.93 1109.93 1353.67 1120.33 1363.4 1120.33C1380.2 1120.33 1402.73 1098.6 1416.2 1069.27C1421.27 1058.47 1428.87 1036.47 1427.93 1035.53C1427.67 1035.27 1425.4 1037.53 1423 1040.73C1413.67 1052.33 1402.07 1063.4 1395.8 1066.6C1390.2 1069.4 1387.8 1069.8 1380.2 1069.4C1372.73 1069 1370.07 1068.2 1365.4 1064.87C1357.93 1059.67 1351.8 1049.4 1346.87 1033.27C1344.6 1026.2 1342.6 1020.33 1342.47 1020.33C1342.2 1020.33 1340.87 1025 1339.27 1030.6Z" fill="#2F2514"/>
<path d="M1451.8 1043.13C1445.67 1049.8 1439.27 1057.67 1437.8 1060.73C1435.53 1065.53 1422.47 1128.2 1423.53 1129.27C1423.67 1129.53 1427.53 1123.8 1432.07 1116.47C1442.33 1100.07 1453.4 1084.6 1462.07 1074.6L1468.73 1066.73L1466.33 1048.87C1465.13 1039 1463.8 1031 1463.67 1031C1463.4 1031 1458.07 1036.47 1451.8 1043.13Z" fill="#2F2514"/>
<path d="M1315.13 1105.13C1303.13 1138.87 1299 1162.07 1301.53 1181C1303.4 1193.93 1307 1205.8 1309.4 1206.6C1312.2 1207.67 1327.53 1200.6 1337.4 1193.67C1348.33 1185.93 1362.73 1171 1371.8 1157.67C1378.33 1148.07 1392.33 1123.27 1392.33 1121.13C1392.33 1120.6 1386.87 1125.27 1380.2 1131.53C1366.33 1144.6 1358.6 1149 1352.07 1147.67C1347.13 1146.6 1333.93 1139 1330.73 1135.4C1327.4 1131.67 1324.6 1120.47 1323.53 1106.73C1322.07 1087.27 1321.53 1087.13 1315.13 1105.13Z" fill="#2F2514"/>
<path d="M271.667 1112.47C276.2 1151.4 290.467 1189.53 315.533 1229.27C324.6 1243.67 344.467 1271 345.933 1271C346.333 1271 345.933 1267.8 344.867 1263.8C342.333 1254.2 339 1231.8 339 1224.6C339 1220.6 339.533 1219 341 1219C343.533 1219 367.933 1229.8 378.867 1235.8C383.533 1238.33 387.533 1240.2 387.8 1239.93C388.867 1239 367.533 1206.73 354.333 1189C329 1155.27 301.267 1127 275.267 1108.47L270.867 1105.4L271.667 1112.47Z" fill="#2F2514"/>
<path d="M171.8 1129.93C191.667 1153.8 194.467 1159.93 201 1192.6C203.4 1204.87 206.6 1217.27 207.934 1219.93C211.4 1226.73 221.534 1234.2 231.934 1237.53C240.867 1240.47 248.334 1241.13 248.334 1239.13C248.334 1236.6 233.934 1201.93 227.667 1189.67C216.067 1166.47 209 1156.07 197.4 1144.87C188.067 1135.93 164.467 1117.67 162.334 1117.67C161.934 1117.67 166.2 1123.27 171.8 1129.93Z" fill="#2F2514"/>
<path d="M219 1124.2C219 1128.07 223.267 1153.8 225.133 1160.87C226.6 1166.73 228.867 1170.73 233.8 1176.33C240.867 1184.6 269.533 1211.67 270.2 1210.87C270.467 1210.6 269 1200.33 267.133 1188.2L263.667 1166.07L241.4 1144.47C229 1132.47 219 1123.4 219 1124.2Z" fill="#2F2514"/>
<path d="M1390.73 1171.93L1375.13 1187.67L1367.13 1216.33C1362.73 1232.07 1358.47 1246.73 1357.67 1249C1356.47 1252.33 1357.93 1251.27 1366.6 1243C1372.33 1237.4 1383.67 1227.4 1391.8 1220.6L1406.73 1208.33L1407.4 1197.4C1407.93 1191.27 1407.8 1179.53 1407.27 1171.27L1406.33 1156.33L1390.73 1171.93Z" fill="#2F2514"/>
<path d="M1275 1178.6C1263.93 1195.4 1246.33 1231.93 1244.33 1242.33C1242.47 1252.33 1243.13 1264.87 1245.8 1270.47C1252.6 1284.07 1269.8 1282.2 1292.87 1265.27C1303.53 1257.4 1334.07 1227.67 1342.73 1216.6L1347.27 1211L1330.2 1219.27C1315 1226.87 1312.33 1227.67 1305 1227.67C1298.33 1227.67 1295.8 1227 1291.27 1223.93C1280.73 1217 1278.07 1206.6 1280.87 1183.67C1281.93 1175.53 1282.6 1168.87 1282.33 1168.6C1282.07 1168.33 1278.87 1172.87 1275 1178.6Z" fill="#2F2514"/>
<path d="M215 1239.4C215 1239.67 221.133 1244.73 228.733 1250.73C253.267 1269.93 255.267 1272.6 272.067 1307C286.333 1336.2 296.467 1348.33 306.867 1348.33C309.533 1348.33 315.4 1347.27 320.067 1345.93L328.467 1343.53L325.533 1341C323.933 1339.53 312.333 1325.4 299.533 1309.53C275.267 1279.27 265.133 1268.73 249.533 1258.33C240.2 1252.07 215 1238.2 215 1239.4Z" fill="#2F2514"/>
<path d="M1217.67 1252.6C1200.6 1271.67 1191.8 1283.93 1184.2 1298.33C1177.53 1311 1172.33 1327.53 1172.33 1336.47C1172.33 1341.4 1172.47 1341.53 1178.73 1342.47C1193 1344.87 1201.67 1343.93 1215.67 1338.47C1246.2 1326.6 1267.8 1313 1287.4 1293.27C1294.6 1286.07 1300.2 1279.8 1299.8 1279.4C1299.4 1279 1294.07 1281.67 1287.93 1285.4C1266.47 1298.6 1254.73 1302.2 1243.27 1299.13C1236.87 1297.4 1230.47 1292.33 1227.67 1286.87C1224.87 1281.67 1225.13 1268.33 1228.33 1253C1229.8 1245.8 1230.73 1239.67 1230.47 1239.4C1230.2 1239 1224.47 1245 1217.67 1252.6Z" fill="#2F2514"/>
<path d="M357.667 1249.53C357.667 1256.73 364.334 1277 371.667 1291.67C381.267 1311.13 396.734 1331.4 418.067 1352.6C427.667 1361.93 435.667 1369.53 435.8 1369.27C436.067 1369 433.934 1363.27 431 1356.47C425.4 1343.53 424.867 1339.4 426.6 1323L427.4 1314.73L435.8 1315.67C440.467 1316.07 451 1317.67 459.267 1319C467.534 1320.33 474.467 1321.13 474.734 1321C475 1320.73 471.4 1316.2 466.867 1310.87C436.867 1275.67 405.4 1254.33 373.667 1247.67C359.534 1244.73 357.667 1244.87 357.667 1249.53Z" fill="#2F2514"/>
<path d="M299.133 1267.93C301.267 1275.93 304.467 1286.2 306.333 1291L309.667 1299.67L325.267 1309.67C333.933 1315.13 345.267 1322.73 350.6 1326.6C355.933 1330.47 360.333 1333.13 360.2 1332.6C360.2 1332.07 355.8 1320.33 350.6 1306.47L341 1281.27L318.6 1267.53C306.2 1259.93 295.933 1253.67 295.667 1253.67C295.533 1253.67 297 1260.07 299.133 1267.93Z" fill="#2F2514"/>
<path d="M1308.87 1298.07C1286.33 1311.93 1282.73 1315 1278.47 1323.8C1274.33 1332.07 1261.4 1365.8 1261.93 1366.33C1263 1367.27 1307.67 1339 1308.6 1336.87C1311 1330.87 1323.27 1290.73 1322.73 1290.33C1322.47 1290.07 1316.2 1293.53 1308.87 1298.07Z" fill="#2F2514"/>
<path d="M1145.67 1315.93C1125.13 1335.93 1117.13 1345.53 1109.8 1359.13C1101.93 1373.93 1099.67 1383.93 1100.2 1401.53L1100.33 1407.4L1114.07 1406.6C1143.53 1404.87 1173.53 1391.93 1202.73 1368.33C1218.73 1355.53 1224.47 1349.67 1221.27 1349.67C1219.93 1349.67 1211.27 1351.53 1201.93 1353.8C1192.6 1356.07 1181 1358.2 1176.07 1358.6C1168.47 1359.27 1166.73 1359 1163.27 1356.6C1153.53 1349.53 1152.47 1334.87 1160.33 1312.6C1162.6 1305.8 1164.33 1299.8 1163.93 1299.4C1163.53 1299 1155.27 1306.47 1145.67 1315.93Z" fill="#2F2514"/>
<path d="M1330.87 1333.13C1321 1340.33 1275.93 1385.4 1262.07 1401.8C1248.2 1418.33 1230.73 1445.8 1232.73 1447.8C1233 1448.2 1235.8 1445.13 1238.87 1441.27C1251.13 1425.27 1260.33 1418.33 1294.87 1398.87C1321.27 1384.07 1326.47 1377.53 1335.67 1347.67C1342.07 1326.6 1342.07 1327 1340.6 1327C1339.93 1327 1335.53 1329.8 1330.87 1333.13Z" fill="#2F2514"/>
<path d="M456.067 1334.87C444.467 1338.73 440.2 1344.87 443 1354.07C450.867 1380.47 482.333 1409.53 533.133 1437.4C542.867 1442.73 551.133 1447 551.667 1447C552.2 1447 549.4 1443 545.533 1437.93C529.667 1417.8 525.8 1412.2 523.133 1405L520.333 1397.4L523 1393.67C524.467 1391.53 528.467 1388.6 531.933 1386.87C539.667 1383.13 553 1382.87 569.4 1386.2C575.4 1387.53 581 1388.33 581.8 1388.07C583.4 1387.53 562.733 1371.8 551.667 1365.4C515.8 1344.2 471.133 1329.93 456.067 1334.87Z" fill="#2F2514"/>
<path d="M1070.33 1363.4C1030.33 1384.07 1001.53 1407.67 997 1423.67C991.934 1440.87 1001.53 1453.13 1023.67 1457.67C1051.4 1463.4 1100.87 1448.33 1130.47 1425.13L1141 1417L1110.33 1416.2C1093.53 1415.8 1076.47 1415 1072.47 1414.33L1065.27 1413.27L1066.07 1405.8C1066.87 1396.6 1072.87 1381.53 1081.13 1368.2C1087.8 1357.4 1089.93 1353.67 1089.4 1353.67C1089.13 1353.67 1080.6 1358.07 1070.33 1363.4Z" fill="#2F2514"/>
<path d="M340.734 1356.73C378.067 1381 381 1383.67 395.4 1407.93C401.134 1417.53 407 1427 408.467 1428.87C413.267 1435 420.467 1437.67 431.4 1437.67C441.8 1437.67 449.667 1436.6 449.667 1435.13C449.667 1432.6 433.934 1413.8 421.8 1401.67C400.067 1380.07 374.734 1364.33 351 1357.8C339.8 1354.73 337.134 1354.47 340.734 1356.73Z" fill="#2F2514"/>
<path d="M391 1356.07C391 1357.53 409.8 1382.33 415.533 1388.33C421.8 1395 433.667 1401.53 448.733 1406.87C455.267 1409.13 461.133 1411 461.8 1411C463.4 1411 451.267 1392.07 443.4 1382.47C438.2 1376.07 434.867 1373.53 425.667 1368.87C413.267 1362.73 391 1354.47 391 1356.07Z" fill="#2F2514"/>
<path d="M1218.73 1393.67C1215 1395.93 1192.2 1401.53 1179.8 1403.27L1167.93 1405L1158.6 1420.33C1153.53 1428.73 1145.53 1440.87 1140.87 1447.27C1136.2 1453.8 1133 1459 1133.8 1459C1134.47 1459 1143.8 1456.6 1154.47 1453.67C1165.13 1450.73 1175.27 1448.33 1176.87 1448.33C1183.27 1448.33 1189.53 1441.8 1204.33 1419.67C1209.67 1411.53 1215.67 1402.87 1217.67 1400.33C1223.8 1392.33 1224.07 1390.6 1218.73 1393.67Z" fill="#2F2514"/>
<path d="M567 1400.2C558.2 1400.87 553.267 1401.8 550.867 1403.4C547.4 1405.8 544.333 1410.87 544.333 1414.47C544.333 1417.4 549 1425.93 553.267 1431C566.467 1446.73 621.533 1476.73 662.333 1490.47L671.667 1493.53L664.333 1487.4C651.267 1476.33 629.8 1453.93 629 1450.6C627.8 1446.07 630.733 1432.73 633 1431.8C634.067 1431.4 645.267 1429.27 657.933 1427C670.6 1424.73 681.133 1422.6 681.4 1422.33C682.467 1421.4 663.533 1412.73 653 1409.27C647.133 1407.4 637.533 1404.87 631.667 1403.67C621.8 1401.67 590.733 1398.87 583 1399.27C581.133 1399.4 573.933 1399.8 567 1400.2Z" fill="#2F2514"/>
<path d="M976.334 1407.53C945.8 1415.4 926.6 1425.13 911.4 1440.47C901.267 1450.6 896.333 1459.8 896.333 1468.6C896.333 1486.33 907 1490.47 949.533 1489.27C970.067 1488.73 978.067 1487.93 987 1485.67C1004.07 1481.4 1044.87 1469.53 1046.07 1468.47C1046.6 1467.93 1033.67 1465.53 1017.4 1463.27C1001 1461 985.267 1458.33 982.467 1457.4C975.667 1455.27 968.333 1448.33 968.333 1444.07C968.333 1440.6 977.534 1425.4 987.934 1411.93C991.267 1407.67 993.667 1403.93 993.534 1403.67C993.267 1403.4 985.534 1405.13 976.334 1407.53Z" fill="#2F2514"/>
<path d="M908.333 1430.73C876.333 1433.27 833.8 1445 809.8 1458.07C799.8 1463.4 785.133 1473.27 782.2 1476.47C779.4 1479.53 779 1487.13 781.533 1490.07C784.067 1493.27 804.2 1502.73 811.667 1504.33C836.333 1509.8 877.933 1512.2 905 1509.8C923.4 1508.07 947 1504.47 948.733 1503C949.267 1502.6 937.667 1499.27 923 1495.8C884.333 1486.6 864.333 1479.67 864.333 1475.67C864.333 1472.6 868.867 1464.2 872.733 1460.2C878.333 1454.33 887.133 1447.8 900.333 1439.8C916.733 1429.8 916.467 1430.07 908.333 1430.73Z" fill="#2F2514"/>
<path d="M712.333 1433.8C692.733 1435.93 668.6 1443.93 655.8 1452.6L651.133 1455.8L654.6 1460.2C659.4 1466.33 675.933 1479.27 686.467 1485.13C710.2 1498.33 747.133 1508.07 787.667 1511.8L797 1512.6L784.333 1505.4C767.667 1496.07 759.933 1490.6 751.267 1482.2C743 1474.2 743 1473.4 753.4 1463.4C761 1456.2 772.333 1450.47 788.733 1445.67C799.667 1442.33 800.6 1441.8 797 1441C794.867 1440.47 790.867 1439.53 788.333 1439C769 1434.33 731.133 1431.67 712.333 1433.8Z" fill="#2F2514"/>
<path d="M513.8 1453.27C531.667 1470.33 549.667 1480.33 562.467 1480.33H568.6L564.067 1474.73C561.667 1471.67 556.2 1465.4 552.067 1460.87C545.4 1453.8 543.4 1452.47 536.067 1450.6C525.933 1447.93 508.867 1444.33 506.2 1444.33C505.133 1444.33 508.6 1448.33 513.8 1453.27Z" fill="#2F2514"/>
<path d="M1092.33 1467.13C1083.13 1468.33 1073 1469.53 1069.93 1469.53C1064.73 1469.67 1063.13 1470.6 1054.6 1478.47C1049.27 1483.27 1037 1493.27 1027.4 1500.73C1017.67 1508.07 1009.93 1514.33 1010.2 1514.6C1010.73 1515.27 1063 1512.47 1067.93 1511.53C1073.13 1510.6 1081.8 1502.47 1098.2 1483C1104.73 1475.27 1111 1467.93 1112.07 1466.6C1114.47 1463.8 1115.27 1463.8 1092.33 1467.13Z" fill="#2F2514"/>
<path d="M609.667 1490.73C609.667 1491.93 631.134 1505.8 638.734 1509.67C646.2 1513.27 663.267 1517.67 670.2 1517.67C676.334 1517.67 681.667 1516.47 681.534 1515.13C681.4 1513.27 664.334 1500.2 658.867 1497.8C651.4 1494.47 609.667 1488.47 609.667 1490.73Z" fill="#2F2514"/>
<path d="M568.333 1509C567.267 1509.27 560.333 1510.2 553 1511C545.667 1511.93 538.867 1513.13 537.933 1513.53C537 1514.07 544.467 1515.27 554.6 1516.07C584.867 1518.73 587.933 1519.53 611.8 1531.8C642.067 1547.27 646.6 1548.33 672.867 1546.07L683.133 1545.27L682.733 1541.13C682.333 1537.27 681.533 1536.73 663 1528.73C628.2 1513.67 606.867 1508.2 583.133 1508.47C576.067 1508.6 569.4 1508.87 568.333 1509Z" fill="#2F2514"/>
<path d="M919 1520.73C900.067 1529.13 881.667 1538.07 881.667 1539C881.667 1540.2 912.867 1550.73 921.534 1552.33C927.667 1553.4 929.267 1553.27 934.067 1550.73C942.467 1546.6 988.6 1518.87 988.067 1518.33C987.8 1518.2 974.467 1517.67 958.334 1517.13L929 1516.33L919 1520.73Z" fill="#2F2514"/>
<path d="M769.134 1523C760.334 1525.27 752.867 1527.27 752.6 1527.67C751.534 1528.6 775.667 1545.67 783.8 1549.8L792.067 1553.93L804.467 1552.33C811.4 1551.53 823 1549.8 830.334 1548.47L843.667 1546.2L837.667 1542.2C834.334 1539.93 824.467 1533.93 815.8 1529C795.8 1517.67 792.067 1517.27 769.134 1523Z" fill="#2F2514"/>
<path d="M1065 1525.13C1005.93 1537.67 965.267 1552.6 944.067 1569.4C935.533 1576.2 923.8 1588.33 924.867 1589.27C925 1589.53 932.6 1585.93 941.8 1581.27C970.867 1566.73 980.067 1564.73 1027.67 1563.13C1045 1562.6 1059.53 1561.53 1061 1560.73C1064.73 1558.73 1072.87 1548.73 1083.27 1533.27C1091.13 1521.93 1091.8 1520.33 1089.27 1520.47C1087.67 1520.47 1076.73 1522.6 1065 1525.13Z" fill="#2F2514"/>
<path d="M698.867 1548.33C694.733 1548.87 683.933 1550.73 674.867 1552.47L658.333 1555.67L676.333 1556.6C703.4 1557.93 715.267 1561 742.734 1573.67C762.2 1582.6 767 1582.6 786.334 1573.27C793.534 1569.8 799.134 1566.73 798.867 1566.47C797.667 1565.27 771.934 1556.07 761.267 1553C741.667 1547.27 719.533 1545.67 698.867 1548.33Z" fill="#2F2514"/>
<path d="M865.667 1563.13C841.934 1565 821.667 1569.67 802.734 1577.53C792.867 1581.8 775.8 1591 776.6 1591.8C776.867 1592.07 784.334 1590.47 793.134 1588.33C826.6 1579.93 841.934 1578.6 858.334 1582.2C862.734 1583.13 872.6 1585.27 880.334 1586.87L894.334 1589.93L901.8 1587.13C905.8 1585.53 914.734 1580.47 921.4 1575.8L933.8 1567.27L925 1565.8C916.734 1564.33 884.734 1561.53 880.334 1561.93C879.267 1561.93 872.6 1562.47 865.667 1563.13Z" fill="#2F2514"/>
</svg>
