<svg width="30" height="30" viewBox="0 0 30 30" fill="none" xmlns="http://www.w3.org/2000/svg">
<g clip-path="url(#clip0_268_91)">
<path d="M16.8412 2.93625C16.6556 2.61293 16.3879 2.34431 16.0653 2.15751C15.7427 1.97071 15.3765 1.87234 15.0037 1.87234C14.6309 1.87234 14.2647 1.97071 13.942 2.15751C13.6194 2.34431 13.3518 2.61293 13.1662 2.93625L0.309304 24.8119C-0.547571 26.2706 0.479929 28.125 2.1468 28.125H27.8587C29.5256 28.125 30.5549 26.2688 29.6962 24.8119L16.8412 2.93625ZM14.9999 9.375C16.0031 9.375 16.7887 10.2413 16.6874 11.2406L16.0312 17.8163C16.0091 18.0746 15.8909 18.3152 15.7 18.4906C15.509 18.6659 15.2592 18.7632 14.9999 18.7632C14.7407 18.7632 14.4908 18.6659 14.2999 18.4906C14.1089 18.3152 13.9907 18.0746 13.9687 17.8163L13.3124 11.2406C13.2889 11.0048 13.3149 10.7667 13.389 10.5416C13.4631 10.3164 13.5835 10.1093 13.7424 9.93359C13.9014 9.75783 14.0955 9.61732 14.312 9.52112C14.5286 9.42491 14.7629 9.37514 14.9999 9.375ZM15.0037 20.625C15.501 20.625 15.9779 20.8225 16.3295 21.1742C16.6811 21.5258 16.8787 22.0027 16.8787 22.5C16.8787 22.9973 16.6811 23.4742 16.3295 23.8258C15.9779 24.1775 15.501 24.375 15.0037 24.375C14.5064 24.375 14.0295 24.1775 13.6779 23.8258C13.3262 23.4742 13.1287 22.9973 13.1287 22.5C13.1287 22.0027 13.3262 21.5258 13.6779 21.1742C14.0295 20.8225 14.5064 20.625 15.0037 20.625Z" fill="#957342"/>
</g>
<defs>
<clipPath id="clip0_268_91">
<rect width="30" height="30" fill="white"/>
</clipPath>
</defs>
</svg>
