<svg width="40" height="54" viewBox="0 0 40 54" fill="none" xmlns="http://www.w3.org/2000/svg">
<path d="M38.5701 26.59C38.1704 26.9108 37.6598 27.0603 37.1502 27.006C36.6406 26.9516 36.1733 26.6978 35.8501 26.3L21.9301 9.16V51.93C21.9275 52.4411 21.7232 52.9304 21.3619 53.2918C21.0005 53.6532 20.5111 53.8574 20 53.86C19.489 53.8574 18.9996 53.6532 18.6382 53.2918C18.2769 52.9304 18.0726 52.4411 18.07 51.93V9.16L4.15007 26.3C3.82694 26.6978 3.35954 26.9516 2.8499 27.006C2.34026 27.0603 1.82984 26.9108 1.4301 26.59C1.04534 26.2582 0.801222 25.7925 0.747361 25.2873C0.693501 24.7821 0.833894 24.2754 1.14006 23.87L18.07 3.02L20 0.649994L21.9301 3.02L38.8602 23.86C39.1693 24.2661 39.3113 24.7751 39.2574 25.2826C39.2035 25.7901 38.9577 26.2579 38.5701 26.59Z" fill="black"/>
</svg>
