<svg width="25" height="22" viewBox="0 0 25 22" fill="none" xmlns="http://www.w3.org/2000/svg">
<path d="M12.4834 13.6082C10.7017 13.6066 8.99344 12.889 7.73361 11.6131C6.47377 10.3371 5.76528 8.60704 5.76367 6.80257C5.76608 4.99863 6.47491 3.26933 7.73466 1.99404C8.99441 0.718749 10.7022 0.00162645 12.4834 0C14.264 0.00243978 15.971 0.719921 17.2301 1.99512C18.4892 3.27032 19.1976 4.99917 19.2 6.80257C19.1984 8.60651 18.4903 10.3361 17.2311 11.612C15.972 12.8879 14.2645 13.6058 12.4834 13.6082V13.6082ZM12.4834 0.611708C10.8624 0.613334 9.30823 1.26601 8.16175 2.42658C7.01527 3.58715 6.37006 5.16087 6.36765 6.80257C6.36926 8.4448 7.01411 10.0193 8.16067 11.1805C9.30724 12.3418 10.8619 12.9949 12.4834 12.9965C14.1043 12.9941 15.6582 12.3406 16.8041 11.1795C17.95 10.0183 18.5944 8.44427 18.596 6.80257C18.5936 5.16168 17.9487 3.58875 16.8028 2.42875C15.6569 1.26876 14.1035 0.616409 12.4834 0.614783V0.611708Z" fill="#B89869"/>
<path d="M24.7147 22C24.6342 22 24.557 21.9676 24.5001 21.91C24.4432 21.8523 24.4112 21.7741 24.4112 21.6926C24.4112 20.0757 23.1972 18.5419 20.9998 17.3676C18.7386 16.1626 15.7248 15.5018 12.5015 15.5018C9.27826 15.5018 6.27959 16.1626 4.01845 17.3676C1.81801 18.5419 0.607017 20.0757 0.607017 21.6926C0.607017 21.7741 0.575036 21.8523 0.518117 21.91C0.461198 21.9676 0.384004 22 0.303509 22C0.223013 22 0.145819 21.9676 0.0889 21.91C0.0319811 21.8523 0 21.7741 0 21.6926C0 19.8483 1.32633 18.1115 3.73315 16.8266C6.07927 15.5786 9.19631 14.89 12.4985 14.89C15.8007 14.89 18.9207 15.5786 21.2668 16.8266C23.6737 18.1115 25 19.839 25 21.6926C25.0001 21.771 24.9707 21.8466 24.9176 21.9037C24.8646 21.9608 24.792 21.9953 24.7147 22V22Z" fill="#B89869"/>
</svg>
