<svg width="54" height="40" viewBox="0 0 54 40" fill="none" xmlns="http://www.w3.org/2000/svg">
<path d="M27.6673 38.8228C27.3466 38.423 27.197 37.9125 27.2514 37.4029C27.3057 36.8932 27.5595 36.4259 27.9573 36.1028L45.0973 22.1828L2.32733 22.1828C1.81627 22.1801 1.3269 21.9759 0.965518 21.6145C0.604141 21.2532 0.399958 20.7638 0.39733 20.2527C0.399958 19.7417 0.604141 19.2523 0.965518 18.8909C1.3269 18.5295 1.81627 18.3253 2.32733 18.3227L45.0973 18.3227L27.9573 4.40274C27.5595 4.07961 27.3057 3.61221 27.2514 3.10257C27.197 2.59293 27.3466 2.08251 27.6673 1.68277C27.9991 1.29801 28.4648 1.05389 28.97 1.00003C29.4752 0.94617 29.9819 1.08656 30.3873 1.39273L51.2373 18.3227L53.6073 20.2527L51.2373 22.1828L30.3973 39.1128C29.9912 39.422 29.4823 39.564 28.9747 39.51C28.4672 39.4561 27.9995 39.2103 27.6673 38.8228Z" fill="#957342"/>
</svg>
