<svg width="20" height="20" viewBox="0 0 20 20" fill="none" xmlns="http://www.w3.org/2000/svg">
<path d="M10.0029 0C7.35099 -4.5082e-07 4.80763 1.05308 2.93189 2.92773C1.05615 4.80237 0.00154631 7.34516 0 9.99708C0 12.65 1.05392 15.1943 2.92983 17.0702C4.80574 18.9461 7.34998 20 10.0029 20C12.6548 19.9985 15.1977 18.9439 17.0723 17.0682C18.947 15.1924 20 12.649 20 9.99708C19.9985 7.34617 18.9447 4.80427 17.0702 2.92979C15.1958 1.0553 12.6538 0.00154527 10.0029 0ZM10.0029 13.7474C9.51042 13.7474 9.02271 13.6504 8.5677 13.462C8.11268 13.2735 7.69931 12.9972 7.35105 12.649C7.0028 12.3007 6.72651 11.8873 6.53803 11.4323C6.34956 10.9773 6.2526 10.4896 6.2526 9.99708C6.2526 9.50458 6.34956 9.0169 6.53803 8.56188C6.72651 8.10686 7.0028 7.69343 7.35105 7.34517C7.69931 6.99692 8.11268 6.72067 8.5677 6.5322C9.02271 6.34373 9.51042 6.24672 10.0029 6.24672C10.9976 6.24672 11.9515 6.64184 12.6549 7.34517C13.3582 8.0485 13.7533 9.00242 13.7533 9.99708C13.7533 10.9917 13.3582 11.9457 12.6549 12.649C11.9515 13.3523 10.9976 13.7474 10.0029 13.7474Z" fill="#B89869"/>
</svg>
